<!-- Generator: Adobe Illustrator 19.0.0, SVG Export Plug-In  -->
<svg version="1.1"
	 xmlns="http://www.w3.org/2000/svg" xmlns:xlink="http://www.w3.org/1999/xlink" xmlns:a="http://ns.adobe.com/AdobeSVGViewerExtensions/3.0/"
	 x="0px" y="0px" width="130.5px" height="138.9px" viewBox="0 0 130.5 138.9" enable-background="new 0 0 130.5 138.9"
	 xml:space="preserve">
<defs>
</defs>
<polyline fill="#FFFFFF" stroke="#7596EA" stroke-width="6" points="78.7,117.4 3.5,135 11.9,60.1 "/>
<circle fill="#FFFFFF" stroke="#7596EA" stroke-width="6" cx="69.8" cy="60.7" r="57.7"/>
<path stroke="#FFFFFF" d="M76.7,77.7L61.1,93.3c-6.7,6.7-18.5,7.1-24.8,0.8l-0.2-0.2c-6.3-6.3-5.9-18.1,0.8-24.8l15.6-15.6
	L76.7,77.7z"/>
<path d="M100.4,25.1c0.4-0.4,1.3-0.3,1.8,0.2l3.3,3.3c0.6,0.6,0.7,1.4,0.2,1.8L64.4,71.7c-0.4,0.4-1.3,0.3-1.8-0.2l-3.3-3.3
	c-0.6-0.6-0.7-1.4-0.2-1.8L100.4,25.1z"/>
<g>
	<path fill="none" stroke="#1D3176" stroke-width="7" d="M24.6,34.5C36,34.5,36,48.9,47.4,48.9c11.4,0,11.4-14.4,22.7-14.4
		c11.4,0,11.4,14.4,22.7,14.4s11.4-14.4,22.7-14.4"/>
</g>
</svg>
