<!-- Generator: Adobe Illustrator 19.0.0, SVG Export Plug-In  -->
<svg version="1.1"
	 xmlns="http://www.w3.org/2000/svg" xmlns:xlink="http://www.w3.org/1999/xlink" xmlns:a="http://ns.adobe.com/AdobeSVGViewerExtensions/3.0/"
	 x="0px" y="0px" width="130.5px" height="138.9px" viewBox="0 0 130.5 138.9" enable-background="new 0 0 130.5 138.9"
	 xml:space="preserve">
<defs>
</defs>
<polyline fill="#FFFFFF" stroke="#7596EA" stroke-width="6" points="78.7,117.4 3.5,135 11.9,60.1 "/>
<circle fill="#FFFFFF" stroke="#7596EA" stroke-width="6" cx="69.8" cy="60.7" r="57.7"/>
<path id="path2748_2_" d="M74.5,37.3l-11,32.9L25.4,57.3l10.7,25.2h-6v4.4h21.2c1.1,4.2,4.8,7.3,9.4,7.3S69,91,70,86.8h36.7v-4.4
	H101L67.3,71.2l11-32.9L74.5,37.3z M60.7,78.7c3.2,0,5.8,2.6,5.8,5.8c0,3.2-2.6,5.8-5.8,5.8s-5.8-2.6-5.8-5.8
	C54.9,81.3,57.5,78.7,60.7,78.7z"/>
<g>
	<line fill="#FFFFFF" x1="60.7" y1="84.5" x2="106.8" y2="25.3"/>
	<g>
		<line fill="none" stroke="#FF0000" stroke-width="8" x1="60.7" y1="84.5" x2="96.7" y2="38.2"/>
		<g>
			<polygon fill="#FF0000" points="106.8,25.3 100,49.3 96,39.2 85.2,37.7 			"/>
		</g>
	</g>
</g>
</svg>
