<!-- Generator: Adobe Illustrator 19.0.0, SVG Export Plug-In  -->
<svg version="1.1"
	 xmlns="http://www.w3.org/2000/svg" xmlns:xlink="http://www.w3.org/1999/xlink" xmlns:a="http://ns.adobe.com/AdobeSVGViewerExtensions/3.0/"
	 x="0px" y="0px" width="130.5px" height="138.9px" viewBox="0 0 130.5 138.9" enable-background="new 0 0 130.5 138.9"
	 xml:space="preserve">
<defs>
</defs>
<polyline fill="#FFFFFF" stroke="#7596EA" stroke-width="6" points="78.7,117.4 3.5,135 11.9,60.1 "/>
<circle fill="#FFFFFF" stroke="#7596EA" stroke-width="6" cx="69.8" cy="60.7" r="57.7"/>
<path stroke="#000000" d="M60.9,73.3l-1.4,3.8c-0.5,1.4,0.2,3,1.7,3.6c1.4,0.5,3-0.2,3.6-1.7l1.4-3.8c0.5-1.4-0.2-3-1.7-3.6
	C63,71,61.4,71.8,60.9,73.3z M64.9,74.9l-1.2,3.5c-0.3,0.8-1.2,1.2-2,0.9c-0.8-0.3-1.2-1.2-0.9-2l1.2-3.5c0.3-0.8,1.2-1.2,2-0.9
	C64.7,73.2,65.2,74.1,64.9,74.9z"/>
<path stroke="#000000" d="M68.2,67.8c0.3,0.2,0.3,0.6,0.1,0.9l-3.8,4.7c-0.2,0.3-0.6,0.3-0.9,0.1l0,0c-0.3-0.2-0.3-0.6-0.1-0.9
	l3.8-4.7C67.5,67.6,67.9,67.5,68.2,67.8L68.2,67.8z"/>
<circle stroke="#FFFFFF" cx="56.5" cy="82.8" r="23.7"/>
<path stroke="#000000" d="M68.3,62.1l-2.1,3.5c-0.8,1.3-0.4,3,1,3.8c1.3,0.8,3,0.4,3.8-1l2.1-3.5c0.8-1.3,0.4-3-1-3.8
	C70.8,60.4,69.1,60.8,68.3,62.1z M71.9,64.5L70,67.7c-0.4,0.7-1.4,1-2.1,0.5c-0.7-0.4-1-1.4-0.5-2.1l1.9-3.2c0.4-0.7,1.4-1,2.1-0.5
	C72.1,62.8,72.4,63.8,71.9,64.5z"/>
<path stroke="#000000" d="M76.5,58.1c0.2,0.3,0.2,0.7-0.1,0.9l-4.7,3.9c-0.3,0.2-0.7,0.2-0.9-0.1l0,0c-0.2-0.3-0.2-0.7,0.1-0.9
	l4.7-3.9C75.9,57.8,76.3,57.9,76.5,58.1L76.5,58.1z"/>
<path stroke="#000000" d="M77.7,52.3l-2.4,3.3c-0.9,1.2-0.7,3,0.6,3.9c1.2,0.9,3,0.7,3.9-0.6l2.4-3.3c0.9-1.2,0.7-3-0.6-3.9
	C80.4,50.8,78.6,51,77.7,52.3z M81.1,55l-2.2,3c-0.5,0.7-1.5,0.8-2.2,0.3c-0.7-0.5-0.8-1.5-0.3-2.2l2.2-3c0.5-0.7,1.5-0.8,2.2-0.3
	C81.4,53.4,81.6,54.3,81.1,55z"/>
<path stroke="#000000" d="M84.3,47.1c0.3,0.2,0.4,0.6,0.2,0.9l-3.2,5.2c-0.2,0.3-0.6,0.4-0.9,0.2l0,0c-0.3-0.2-0.4-0.6-0.2-0.9
	l3.2-5.2C83.7,47,84.1,46.9,84.3,47.1L84.3,47.1z"/>
<path stroke="#000000" d="M84.9,41.9l-2.4,3.3c-0.9,1.2-0.7,3,0.6,3.9c1.2,0.9,3,0.7,3.9-0.6l2.4-3.3c0.9-1.2,0.7-3-0.6-3.9
	C87.6,40.4,85.8,40.7,84.9,41.9z M88.3,44.7l-2.2,3c-0.5,0.7-1.5,0.8-2.2,0.3c-0.7-0.5-0.8-1.5-0.3-2.2l2.2-3
	c0.5-0.7,1.5-0.8,2.2-0.3C88.6,43,88.8,44,88.3,44.7z"/>
<path stroke="#000000" d="M91.4,37.2c0.3,0.2,0.4,0.6,0.2,0.9l-3.2,5.2c-0.2,0.3-0.6,0.4-0.9,0.2l0,0c-0.3-0.2-0.4-0.6-0.2-0.9
	l3.2-5.2C90.7,37.1,91.1,37,91.4,37.2L91.4,37.2z"/>
<path stroke="#000000" d="M91,31.6l-1.5,3.8c-0.5,1.4,0.2,3,1.6,3.6c1.4,0.5,3-0.2,3.6-1.6l1.5-3.8c0.5-1.4-0.2-3-1.6-3.6
	C93.2,29.5,91.6,30.2,91,31.6z M95,33.3l-1.3,3.4c-0.3,0.8-1.2,1.2-2,0.9c-0.8-0.3-1.2-1.2-0.9-2l1.3-3.4c0.3-0.8,1.2-1.2,2-0.9
	C94.9,31.7,95.3,32.5,95,33.3z"/>
<path stroke="#000000" d="M96,25.3c0.3,0.1,0.5,0.4,0.4,0.8l-1.7,5.8c-0.1,0.3-0.4,0.5-0.8,0.4l0,0c-0.3-0.1-0.5-0.4-0.4-0.8
	l1.7-5.8C95.3,25.4,95.6,25.2,96,25.3L96,25.3z"/>
<path stroke="#000000" d="M92.9,20.7l0.5,4.1c0.2,1.5,1.6,2.6,3.1,2.4c1.5-0.2,2.6-1.6,2.4-3.1L98.5,20c-0.2-1.5-1.6-2.6-3.1-2.4
	C93.8,17.7,92.7,19.1,92.9,20.7z M97.3,20.3l0.5,3.7c0.1,0.8-0.5,1.6-1.3,1.7c-0.8,0.1-1.6-0.5-1.7-1.3l-0.5-3.7
	c-0.1-0.8,0.5-1.6,1.3-1.7C96.4,18.9,97.2,19.5,97.3,20.3z"/>
</svg>
