<!-- Generator: Adobe Illustrator 19.0.0, SVG Export Plug-In  -->
<svg version="1.1"
	 xmlns="http://www.w3.org/2000/svg" xmlns:xlink="http://www.w3.org/1999/xlink" xmlns:a="http://ns.adobe.com/AdobeSVGViewerExtensions/3.0/"
	 x="0px" y="0px" width="130.5px" height="138.9px" viewBox="0 0 130.5 138.9" enable-background="new 0 0 130.5 138.9"
	 xml:space="preserve">
<defs>
</defs>
<polyline fill="#FFFFFF" stroke="#7596EA" stroke-width="6" points="78.7,117.4 3.5,135 11.9,60.1 "/>
<circle fill="#FFFFFF" stroke="#7596EA" stroke-width="6" cx="69.8" cy="60.7" r="57.7"/>
<path id="path10928_1_" fill="#A30075" d="M57.9,75.6L32.1,50.1l-1.9-1.9l-1.4-2.2l-0.5-2.6l0.3-2.7l1.1-2.4l1.8-2l2.4-1.3l2.7-0.6
	l2.6,0.3l2.1,1.2l1.8,1.9l1.6,2.2l0.3,0.5L57.9,75.6z M66.4,86.7c0,0.8-0.7,1.5-1.5,1.5c-0.8,0-1.5-0.7-1.5-1.5
	c0-0.8,0.7-1.5,1.5-1.5C65.7,85.3,66.4,85.9,66.4,86.7z"/>
<path id="path12984_1_" fill="#000407" d="M54.4,100l4.1-11.8l-10-7.1h12.2l3.9-11.7L68.2,81h12.3l-10,7.3l3.7,11.7l-9.8-7.3
	L54.4,100z M67.8,86.3c0,1.8-1.5,3.3-3.3,3.3c-1.8,0-3.3-1.5-3.3-3.3c0-1.8,1.5-3.3,3.3-3.3C66.3,83,67.8,84.5,67.8,86.3z"/>
<line fill="#FFFFFF" stroke="#00D215" stroke-width="8" x1="82.5" y1="48" x2="82.5" y2="15"/>
<line fill="#FFFFFF" stroke="#00D215" stroke-width="8" x1="99" y1="31.5" x2="66" y2="31.5"/>
</svg>
