<!-- Generator: Adobe Illustrator 19.0.0, SVG Export Plug-In  -->
<svg version="1.1"
	 xmlns="http://www.w3.org/2000/svg" xmlns:xlink="http://www.w3.org/1999/xlink" xmlns:a="http://ns.adobe.com/AdobeSVGViewerExtensions/3.0/"
	 x="0px" y="0px" width="130.5px" height="138.9px" viewBox="0 0 130.5 138.9" enable-background="new 0 0 130.5 138.9"
	 xml:space="preserve">
<defs>
</defs>
<polyline fill="#FFFFFF" stroke="#7596EA" stroke-width="6" points="78.7,117.4 3.5,135 11.9,60.1 "/>
<circle fill="#FFFFFF" stroke="#7596EA" stroke-width="6" cx="69.8" cy="60.7" r="57.7"/>
<path id="path10928_2_" fill="#A30075" d="M71.8,66.5L45.9,41L44,39.2L42.7,37l-0.5-2.6l0.3-2.7l1.1-2.4l1.8-2l2.4-1.3l2.7-0.6
	l2.6,0.3l2.1,1.2l1.8,1.9l1.6,2.2l0.3,0.5L71.8,66.5z M80.2,77.6c0,0.8-0.7,1.5-1.5,1.5c-0.8,0-1.5-0.7-1.5-1.5s0.7-1.5,1.5-1.5
	C79.5,76.2,80.2,76.8,80.2,77.6z"/>
<path id="path12984_2_" fill="#000407" d="M68.2,90.9L72.2,79l-10-7.1h12.2l3.9-11.7L82,71.9h12.3l-10,7.3l3.7,11.7l-9.8-7.3
	L68.2,90.9z M81.6,77.2c0,1.8-1.5,3.3-3.3,3.3c-1.8,0-3.3-1.5-3.3-3.3s1.5-3.3,3.3-3.3C80.1,73.9,81.6,75.4,81.6,77.2z"/>
</svg>
