<!-- Generator: Adobe Illustrator 19.0.0, SVG Export Plug-In  -->
<svg version="1.1"
	 xmlns="http://www.w3.org/2000/svg" xmlns:xlink="http://www.w3.org/1999/xlink" xmlns:a="http://ns.adobe.com/AdobeSVGViewerExtensions/3.0/"
	 x="0px" y="0px" width="130.5px" height="138.9px" viewBox="0 0 130.5 138.9" enable-background="new 0 0 130.5 138.9"
	 xml:space="preserve">
<defs>
</defs>
<polyline fill="#FFFFFF" stroke="#7596EA" stroke-width="6" points="78.7,117.4 3.5,135 11.9,60.1 "/>
<circle fill="#FFFFFF" stroke="#7596EA" stroke-width="6" cx="69.8" cy="60.7" r="57.7"/>
<polygon points="47.5,57.1 65.5,11 84.2,11 59.9,72.2 "/>
<path d="M46.4,60.1c0,0,0,0,32.3,39.8l14.3,0.7v5.1l-10.3,0.6L54,107.4c-5.4-0.9-9.9-3.2-12.1-8.6c-0.9-2.2-0.7-4.4-0.2-6.6
	L46.4,60.1z"/>
<g>
	<path fill="none" stroke="#1D3176" stroke-width="7" d="M24.6,34.5C36,34.5,36,48.9,47.4,48.9c11.4,0,11.4-14.4,22.7-14.4
		c11.4,0,11.4,14.4,22.7,14.4s11.4-14.4,22.7-14.4"/>
</g>
</svg>
