<!-- Generator: Adobe Illustrator 19.0.0, SVG Export Plug-In  -->
<svg version="1.1"
	 xmlns="http://www.w3.org/2000/svg" xmlns:xlink="http://www.w3.org/1999/xlink" xmlns:a="http://ns.adobe.com/AdobeSVGViewerExtensions/3.0/"
	 x="0px" y="0px" width="130.5px" height="138.9px" viewBox="0 0 130.5 138.9" enable-background="new 0 0 130.5 138.9"
	 xml:space="preserve">
<defs>
</defs>
<polyline fill="#FFFFFF" stroke="#7596EA" stroke-width="6" points="78.7,117.4 3.5,135 11.9,60.1 "/>
<circle fill="#FFFFFF" stroke="#7596EA" stroke-width="6" cx="69.8" cy="60.7" r="57.7"/>
<path id="buoy_2_" fill="#000407" d="M45.5,46.1l-12,36h-6.3v4.5h23.4c1,4.4,4.9,7.6,9.6,7.6c4.7,0,8.6-3.2,9.6-7.6h23.5v0v-4.4h-6
	l7.1-20.6L45.5,46.1z M49.5,52.9l37.1,12.6l-5.7,16.6H69.7c-1-4.4-4.9-7.6-9.6-7.6c-4.7,0-8.6,3.2-9.6,7.6H39.8L49.5,52.9z
	 M60.2,78.4c3.3,0,5.9,2.6,5.9,5.9c0,3.3-2.6,5.9-5.9,5.9s-5.9-2.6-5.9-5.9C54.3,81.1,56.9,78.4,60.2,78.4z"/>
<g>
	<line fill="#FFFFFF" x1="60.7" y1="84.5" x2="106.8" y2="25.3"/>
	<g>
		<line fill="none" stroke="#FF0000" stroke-width="8" x1="60.7" y1="84.5" x2="96.7" y2="38.2"/>
		<g>
			<polygon fill="#FF0000" points="106.8,25.3 100,49.3 96,39.2 85.2,37.7 			"/>
		</g>
	</g>
</g>
</svg>
