<!-- Generator: Adobe Illustrator 19.0.0, SVG Export Plug-In  -->
<svg version="1.1"
	 xmlns="http://www.w3.org/2000/svg" xmlns:xlink="http://www.w3.org/1999/xlink" xmlns:a="http://ns.adobe.com/AdobeSVGViewerExtensions/3.0/"
	 x="0px" y="0px" width="130.5px" height="138.9px" viewBox="0 0 130.5 138.9" enable-background="new 0 0 130.5 138.9"
	 xml:space="preserve">
<defs>
</defs>
<polyline fill="#FFFFFF" stroke="#7596EA" stroke-width="6" points="78.7,117.4 3.5,135 11.9,60.1 "/>
<circle fill="#FFFFFF" stroke="#7596EA" stroke-width="6" cx="69.8" cy="60.7" r="57.7"/>
<path id="buoy_1_" fill="#000407" d="M54.5,37.1l-12,36h-6.3v4.5h23.4c1,4.4,4.9,7.6,9.6,7.6c4.7,0,8.6-3.2,9.6-7.6h23.5v0v-4.4h-6
	l7.1-20.6L54.5,37.1z M58.5,43.9l37.1,12.6l-5.7,16.6H78.7c-1-4.4-4.9-7.6-9.6-7.6c-4.7,0-8.6,3.2-9.6,7.6H48.8L58.5,43.9z
	 M69.2,69.4c3.3,0,5.9,2.6,5.9,5.9c0,3.3-2.6,5.9-5.9,5.9s-5.9-2.6-5.9-5.9C63.3,72.1,65.9,69.4,69.2,69.4z"/>
<g id="cross_copy">
</g>
<line opacity="0.8" fill="#FFFFFF" stroke="#FF0000" stroke-width="8" x1="33" y1="25.3" x2="107.8" y2="94.4"/>
</svg>
