<!-- Generator: Adobe Illustrator 19.0.0, SVG Export Plug-In  -->
<svg version="1.1"
	 xmlns="http://www.w3.org/2000/svg" xmlns:xlink="http://www.w3.org/1999/xlink" xmlns:a="http://ns.adobe.com/AdobeSVGViewerExtensions/3.0/"
	 x="0px" y="0px" width="130.5px" height="138.9px" viewBox="0 0 130.5 138.9" enable-background="new 0 0 130.5 138.9"
	 xml:space="preserve">
<defs>
</defs>
<polyline fill="#FFFFFF" stroke="#7596EA" stroke-width="6" points="78.7,117.4 3.5,135 11.9,60.1 "/>
<circle fill="#FFFFFF" stroke="#7596EA" stroke-width="6" cx="69.8" cy="60.7" r="57.7"/>
<path id="path2748_1_" d="M80.5,28.3l-11,32.9L31.4,48.3l10.7,25.2h-6v4.4h21.2c1.1,4.2,4.8,7.3,9.4,7.3c4.5,0,8.3-3.1,9.4-7.3h36.7
	v-4.4H107L73.3,62.2l11-32.9L80.5,28.3z M66.7,69.7c3.2,0,5.8,2.6,5.8,5.8c0,3.2-2.6,5.8-5.8,5.8c-3.2,0-5.8-2.6-5.8-5.8
	C60.9,72.3,63.5,69.7,66.7,69.7z"/>
<line opacity="0.8" fill="#FFFFFF" stroke="#FF0000" stroke-width="8" x1="33" y1="25.3" x2="107.8" y2="94.4"/>
</svg>
